<svg width="40.000000" height="14.000000" viewBox="0 0 40 14" fill="none" xmlns="http://www.w3.org/2000/svg" xmlns:xlink="http://www.w3.org/1999/xlink">
	<desc>
			Created with Pixso.
	</desc>
	<defs/>
	<rect id="Frame 30114" rx="6.500000" width="39.000000" height="13.000000" transform="translate(0.500000 0.500000)" fill="#B9D7F1" fill-opacity="1.000000"/>
	<path id="NEW" d="M13.38 3.72L14.69 3.72L14.69 11L13.52 11L10.09 6.04L10.03 6.04L10.03 11L8.71 11L8.71 3.72L9.89 3.72L13.31 8.68L13.38 8.68L13.38 3.72ZM20.88 11L16.12 11L16.12 3.72L20.85 3.72L20.85 4.83L17.44 4.83L17.44 6.8L20.61 6.8L20.61 7.91L17.44 7.91L17.44 9.89L20.88 9.89L20.88 11ZM25.03 11L23.73 11L21.67 3.72L23.09 3.72L24.4 9.07L24.47 9.07L25.87 3.72L27.16 3.72L28.56 9.07L28.62 9.07L29.93 3.72L31.35 3.72L29.3 11L28 11L26.54 5.89L26.49 5.89L25.03 11Z" fill="#000000" fill-opacity="1.000000" fill-rule="evenodd"/>
</svg>
