<svg width="36.000000" height="36.000000" viewBox="0 0 36 36" fill="none" xmlns="http://www.w3.org/2000/svg" xmlns:xlink="http://www.w3.org/1999/xlink">
	<desc>
			Created with Pixso.
	</desc>
	<defs>
		<clipPath id="clip152_31045">
			<rect id="img-01" rx="7.500000" width="35.000000" height="35.000000" transform="translate(0.500000 0.500000)" fill="white" fill-opacity="0"/>
		</clipPath>
	</defs>
	<rect id="img-01" rx="7.500000" width="35.000000" height="35.000000" transform="translate(0.500000 0.500000)" fill="#EFF3FA" fill-opacity="1.000000"/>
	<g clip-path="url(#clip152_31045)">
		<rect id="vuesax/bold/profile-add" rx="-0.500000" width="23.000000" height="23.000000" transform="translate(6.500000 6.500000)" fill="#FFFFFF" fill-opacity="0"/>
		<path id="Vector" d="M18 8C15.37 8 13.25 10.13 13.25 12.75C13.25 15.31 15.25 17.4 17.87 17.49C17.95 17.48 18.04 17.48 18.1 17.49C18.12 17.49 18.12 17.49 18.14 17.49C18.16 17.49 18.16 17.49 18.16 17.49C20.73 17.4 22.74 15.31 22.75 12.75C22.75 10.13 20.62 8 18 8Z" fill="#13296A" fill-opacity="1.000000" fill-rule="nonzero"/>
		<path id="Vector" d="M23.08 20.15C20.29 18.29 15.73 18.29 12.93 20.15C11.66 21 10.96 22.15 10.96 23.38C10.96 24.61 11.66 25.75 12.91 26.59C14.31 27.53 16.16 28 18 28C19.83 28 21.68 27.53 23.08 26.59C24.33 25.74 25.04 24.6 25.04 23.36C25.02 22.13 24.33 20.99 23.08 20.15ZM20 24.13L18.75 24.13L18.75 25.38C18.75 25.79 18.41 26.13 18 26.13C17.58 26.13 17.25 25.79 17.25 25.38L17.25 24.13L16 24.13C15.58 24.13 15.25 23.79 15.25 23.38C15.25 22.97 15.58 22.63 16 22.63L17.25 22.63L17.25 21.38C17.25 20.97 17.58 20.63 18 20.63C18.41 20.63 18.75 20.97 18.75 21.38L18.75 22.63L20 22.63C20.41 22.63 20.75 22.97 20.75 23.38C20.75 23.79 20.41 24.13 20 24.13Z" fill="#13296A" fill-opacity="1.000000" fill-rule="nonzero"/>
		<g opacity="0.000000"/>
	</g>
</svg>
