<svg width="36.000000" height="36.000000" viewBox="0 0 36 36" fill="none" xmlns="http://www.w3.org/2000/svg" xmlns:xlink="http://www.w3.org/1999/xlink">
	<desc>
			Created with Pixso.
	</desc>
	<defs>
		<clipPath id="clip291_32515">
			<rect id="img-02" rx="7.500000" width="35.000000" height="35.000000" transform="translate(0.500000 0.500000)" fill="white" fill-opacity="0"/>
		</clipPath>
	</defs>
	<rect id="img-02" rx="7.500000" width="35.000000" height="35.000000" transform="translate(0.500000 0.500000)" fill="#EFF3FA" fill-opacity="1.000000"/>
	<g clip-path="url(#clip291_32515)">
		<rect id="vuesax/linear/bank" rx="-0.500000" width="23.000000" height="23.000000" transform="translate(6.500000 6.500000)" fill="#FFFFFF" fill-opacity="0"/>
		<path id="Vector" d="M27.37 11.75C27.72 11.89 28 12.31 28 12.68L28 16C28 16.54 27.54 17 27 17L9 17C8.45 17 8 16.54 8 16L8 12.68C8 12.31 8.27 11.89 8.62 11.75L17.62 8.15C17.83 8.07 18.16 8.07 18.37 8.15L27.37 11.75Z" stroke="#13296A" stroke-opacity="1.000000" stroke-width="1.500000" stroke-linejoin="round"/>
		<path id="Vector" d="M8 28L8 25C8 24.45 8.45 24 9 24L27 24C27.54 24 28 24.45 28 25L28 28L8 28Z" stroke="#13296A" stroke-opacity="1.000000" stroke-width="1.500000" stroke-linejoin="round"/>
		<path id="Vector" d="M10 24L10 17" stroke="#13296A" stroke-opacity="1.000000" stroke-width="1.500000" stroke-linejoin="round" stroke-linecap="round"/>
		<path id="Vector" d="M14 24L14 17" stroke="#13296A" stroke-opacity="1.000000" stroke-width="1.500000" stroke-linejoin="round" stroke-linecap="round"/>
		<path id="Vector" d="M18 24L18 17" stroke="#13296A" stroke-opacity="1.000000" stroke-width="1.500000" stroke-linejoin="round" stroke-linecap="round"/>
		<path id="Vector" d="M22 24L22 17" stroke="#13296A" stroke-opacity="1.000000" stroke-width="1.500000" stroke-linejoin="round" stroke-linecap="round"/>
		<path id="Vector" d="M26 24L26 17" stroke="#13296A" stroke-opacity="1.000000" stroke-width="1.500000" stroke-linejoin="round" stroke-linecap="round"/>
		<path id="Vector" d="M7 28L29 28" stroke="#13296A" stroke-opacity="1.000000" stroke-width="1.500000" stroke-linejoin="round" stroke-linecap="round"/>
		<g opacity="0.000000"/>
	</g>
</svg>
