<svg width="36.000000" height="36.000000" viewBox="0 0 36 36" fill="none" xmlns="http://www.w3.org/2000/svg" xmlns:xlink="http://www.w3.org/1999/xlink">
	<desc>
			Created with Pixso.
	</desc>
	<defs>
		<clipPath id="clip291_32528">
			<rect id="img-03" rx="7.500000" width="35.000000" height="35.000000" transform="translate(0.500000 0.500000)" fill="white" fill-opacity="0"/>
		</clipPath>
	</defs>
	<rect id="img-03" rx="7.500000" width="35.000000" height="35.000000" transform="translate(0.500000 0.500000)" fill="#EFF3FA" fill-opacity="1.000000"/>
	<g clip-path="url(#clip291_32528)">
		<path id="Vector" d="M10.02 12.46C8.1 13.72 8.1 16.54 10.02 17.79L16.04 21.73C17.12 22.44 18.91 22.44 19.99 21.73L25.98 17.79C27.89 16.54 27.89 13.73 25.98 12.47L19.99 8.54C18.91 7.82 17.12 7.82 16.04 8.53L10.02 12.46Z" stroke="#13296A" stroke-opacity="1.000000" stroke-width="1.500000" stroke-linejoin="round"/>
		<path id="Vector" d="M11.62 19.08L11.62 23.77C11.62 25.04 12.6 26.4 13.8 26.79L16.99 27.86C17.54 28.04 18.45 28.04 19.01 27.86L22.2 26.79C23.39 26.4 24.37 25.04 24.37 23.77L24.37 19.12" stroke="#13296A" stroke-opacity="1.000000" stroke-width="1.500000" stroke-linejoin="round" stroke-linecap="round"/>
		<path id="Vector" d="M27.39 21L27.39 15" stroke="#13296A" stroke-opacity="1.000000" stroke-width="1.500000" stroke-linejoin="round" stroke-linecap="round"/>
		<g opacity="0.000000"/>
	</g>
</svg>
