<svg width="28.000000" height="28.000000" viewBox="0 0 28 28" fill="none" xmlns="http://www.w3.org/2000/svg" xmlns:xlink="http://www.w3.org/1999/xlink">
	<desc>
			Created with Pixso.
	</desc>
	<defs>
		<clipPath id="clip228_32386">
			<rect id="iconoir:bell-notification" rx="-0.500000" width="27.000000" height="27.000000" transform="translate(0.500000 0.500000)" fill="white" fill-opacity="0"/>
		</clipPath>
	</defs>
	<rect id="iconoir:bell-notification" rx="-0.500000" width="27.000000" height="27.000000" transform="translate(0.500000 0.500000)" fill="#FFFFFF" fill-opacity="0"/>
	<g clip-path="url(#clip228_32386)">
		<path id="Vector" d="M24.5 21L3.5 21C3.5 21 7 18.51 7 9.8C7 7.82 7.73 5.92 9.04 4.52C10.36 3.12 12.14 2.33 14 2.33C14.39 2.33 14.78 2.36 15.16 2.43L21.15 12.83C21.83 19.1 24.5 21 24.5 21ZM24.64 8.3C25.29 7.65 25.66 6.76 25.66 5.83C25.66 4.9 25.29 4.01 24.64 3.35C23.98 2.7 23.09 2.33 22.16 2.33C21.23 2.33 20.34 2.7 19.69 3.35C19.03 4.01 18.66 4.9 18.66 5.83C18.66 6.76 19.03 7.65 19.69 8.3C20.34 8.96 21.23 9.33 22.16 9.33C23.09 9.33 23.98 8.96 24.64 8.3ZM16.01 24.5C15.81 24.85 15.51 25.14 15.16 25.35C14.81 25.55 14.4 25.66 14 25.66C13.59 25.66 13.18 25.55 12.83 25.35C12.48 25.14 12.18 24.85 11.98 24.5" stroke="#282828" stroke-opacity="1.000000" stroke-width="1.500000" stroke-linejoin="round" stroke-linecap="round"/>
		<ellipse id="Ellipse 7" rx="6.300001" ry="6.299999" transform="matrix(-1 0 0 1 20.3003 6.30005)" fill="#2D88D4" fill-opacity="1.000000"/>
	</g>
</svg>
