<svg width="16.000488" height="15.998291" viewBox="0 0 16.0005 15.9983" fill="none" xmlns="http://www.w3.org/2000/svg" xmlns:xlink="http://www.w3.org/1999/xlink">
	<desc>
			Created with Pixso.
	</desc>
	<defs/>
	<path id="search" d="M11.74 10.34C12.71 9.02 13.14 7.38 12.95 5.75C12.76 4.12 11.97 2.63 10.73 1.56C9.48 0.49 7.88 -0.06 6.24 0C4.61 0.06 3.06 0.74 1.9 1.9C0.74 3.06 0.06 4.61 0 6.25C-0.06 7.89 0.5 9.49 1.56 10.73C2.63 11.97 4.13 12.77 5.75 12.95C7.38 13.14 9.02 12.7 10.34 11.74L10.34 11.74C10.37 11.78 10.4 11.81 10.44 11.85L14.29 15.7C14.48 15.89 14.73 15.99 15 15.99C15.26 15.99 15.51 15.89 15.7 15.7C15.89 15.51 16 15.26 16 14.99C16 14.73 15.89 14.47 15.7 14.29L11.85 10.44C11.82 10.4 11.78 10.37 11.74 10.34L11.74 10.34ZM12 6.49C12 7.22 11.85 7.93 11.58 8.6C11.3 9.27 10.9 9.87 10.39 10.38C9.87 10.89 9.27 11.3 8.6 11.57C7.93 11.85 7.22 11.99 6.5 11.99C5.77 11.99 5.06 11.85 4.39 11.57C3.72 11.3 3.12 10.89 2.61 10.38C2.1 9.87 1.69 9.27 1.41 8.6C1.14 7.93 1 7.22 1 6.49C1 5.03 1.58 3.64 2.61 2.6C3.64 1.57 5.04 0.99 6.5 0.99C7.95 0.99 9.35 1.57 10.39 2.6C11.42 3.64 12 5.03 12 6.49Z" fill="#8A8A8A" fill-opacity="1.000000" fill-rule="nonzero"/>
</svg>
