<svg width="16.000000" height="16.000000" viewBox="0 0 16 16" fill="none" xmlns="http://www.w3.org/2000/svg" xmlns:xlink="http://www.w3.org/1999/xlink">
	<desc>
			Created with Pixso.
	</desc>
	<defs>
		<clipPath id="clip8_376">
			<rect id="support" rx="-0.500000" width="15.000000" height="15.000000" transform="translate(0.500000 0.500000)" fill="white" fill-opacity="0"/>
		</clipPath>
	</defs>
	<rect id="support" rx="-0.500000" width="15.000000" height="15.000000" transform="translate(0.500000 0.500000)" fill="#FFFFFF" fill-opacity="0"/>
	<g clip-path="url(#clip8_376)">
		<path id="Vector" d="M8 1.33C4.32 1.33 1.33 4.32 1.33 8L1.33 10.76C1.33 11.44 1.93 12 2.66 12L3.33 12C3.51 12 3.67 11.92 3.8 11.8C3.92 11.67 4 11.51 4 11.33L4 7.9C4 7.72 3.92 7.55 3.8 7.43C3.67 7.3 3.51 7.23 3.33 7.23L2.72 7.23C3.09 4.65 5.31 2.66 8 2.66C10.68 2.66 12.9 4.65 13.27 7.23L12.66 7.23C12.49 7.23 12.32 7.3 12.19 7.43C12.07 7.55 12 7.72 12 7.9L12 12C12 12.73 11.4 13.33 10.66 13.33L9.33 13.33L9.33 12.66L6.66 12.66L6.66 14.66L10.66 14.66C12.13 14.66 13.33 13.47 13.33 12C14.06 12 14.66 11.44 14.66 10.76L14.66 8C14.66 4.32 11.67 1.33 8 1.33Z" fill="#FCFAFA" fill-opacity="1.000000" fill-rule="nonzero"/>
	</g>
</svg>
